# xmcd CD database file
#
# Track frame offsets:
#	150
#	13237
#	35580
#	54835
#	79870
#	99257
#	116520
#	132915
#	155972
#	171709
#	190510
#	202877
#	227970
#
# Disc length: 3241 seconds
#
# Revision: 0
# Processed by: cddbd v1.5.2PL0 Copyright (c) Steve Scherf et al.
# Submitted via: CDex 1.70beta2
#
DISCID=ac0ca70d
DTITLE=Swedish Swing Society - Louis Goes to Church
DYEAR=2001
DGENRE=Jazz
TTITLE0=Antti Serppila - Louis' Hot Chorus
TTITLE1=Louis Armstrong - Someday You'll Be Sorry
TTITLE2=Louis Armstron - Struttin' With Some Barbeque
TTITLE3=Medley - New Orelans
TTITLE4=A. Lewis - Blueberry Hill
TTITLE5=J. Oliver - West End Blues
TTITLE6=T. Shand - I Double Dare You
TTITLE7=H. Arlen - I Got the Right to Sing the Blues
TTITLE8=Trad - Wall Street Rag
TTITLE9=F. Waller - Blue Turning Grey Over You
TTITLE10=J. Oliver - Dippermouth Blues
TTITLE11=L. Rene - When It's Sleepy Time Down South
TTITLE12=K. Well - Mack the Knife
EXTD=YEAR: 2001
EXTT0=
EXTT1=
EXTT2=
EXTT3=
EXTT4=
EXTT5=
EXTT6=
EXTT7=
EXTT8=
EXTT9=
EXTT10=
EXTT11=
EXTT12=
PLAYORDER=
